<svg width="1394" height="257" viewBox="0 0 1394 257" fill="none" xmlns="http://www.w3.org/2000/svg">
<path d="M194 2C194 0.89543 193.105 0 192 0C190.895 0 190 0.89543 190 2V135C190 136.105 190.895 137 192 137C193.105 137 194 136.105 194 135V2Z" fill="url(#paint0_linear_1_3)"/>
<path d="M204 12C204 10.8954 203.105 10 202 10C200.895 10 200 10.8954 200 12V145C200 146.105 200.895 147 202 147C203.105 147 204 146.105 204 145V12Z" fill="url(#paint1_linear_1_3)"/>
<path d="M184 12C184 10.8954 183.105 10 182 10C180.895 10 180 10.8954 180 12V145C180 146.105 180.895 147 182 147C183.105 147 184 146.105 184 145V12Z" fill="url(#paint2_linear_1_3)"/>
<path d="M214 22C214 20.8954 213.105 20 212 20C210.895 20 210 20.8954 210 22V155C210 156.105 210.895 157 212 157C213.105 157 214 156.105 214 155V22Z" fill="url(#paint3_linear_1_3)"/>
<path d="M174 22C174 20.8954 173.105 20 172 20C170.895 20 170 20.8954 170 22V155C170 156.105 170.895 157 172 157C173.105 157 174 156.105 174 155V22Z" fill="url(#paint4_linear_1_3)"/>
<path d="M164 12C164 10.8954 163.105 10 162 10C160.895 10 160 10.8954 160 12V145C160 146.105 160.895 147 162 147C163.105 147 164 146.105 164 145V12Z" fill="url(#paint5_linear_1_3)"/>
<path d="M154 22C154 20.8954 153.105 20 152 20C150.895 20 150 20.8954 150 22V155C150 156.105 150.895 157 152 157C153.105 157 154 156.105 154 155V22Z" fill="url(#paint6_linear_1_3)"/>
<path d="M144 32C144 30.8954 143.105 30 142 30C140.895 30 140 30.8954 140 32V165C140 166.105 140.895 167 142 167C143.105 167 144 166.105 144 165V32Z" fill="url(#paint7_linear_1_3)"/>
<path d="M134 42C134 40.8954 133.105 40 132 40C130.895 40 130 40.8954 130 42V175C130 176.105 130.895 177 132 177C133.105 177 134 176.105 134 175V42Z" fill="url(#paint8_linear_1_3)"/>
<path d="M124 32C124 30.8954 123.105 30 122 30C120.895 30 120 30.8954 120 32V165C120 166.105 120.895 167 122 167C123.105 167 124 166.105 124 165V32Z" fill="url(#paint9_linear_1_3)"/>
<path d="M114 42C114 40.8954 113.105 40 112 40C110.895 40 110 40.8954 110 42V175C110 176.105 110.895 177 112 177C113.105 177 114 176.105 114 175V42Z" fill="url(#paint10_linear_1_3)"/>
<path d="M104 52C104 50.8954 103.105 50 102 50C100.895 50 100 50.8954 100 52V185C100 186.105 100.895 187 102 187C103.105 187 104 186.105 104 185V52Z" fill="url(#paint11_linear_1_3)"/>
<path d="M94 62C94 60.8954 93.1046 60 92 60C90.8954 60 90 60.8954 90 62V195C90 196.105 90.8954 197 92 197C93.1046 197 94 196.105 94 195V62Z" fill="url(#paint12_linear_1_3)"/>
<path d="M84 72C84 70.8954 83.1046 70 82 70C80.8954 70 80 70.8954 80 72V205C80 206.105 80.8954 207 82 207C83.1046 207 84 206.105 84 205V72Z" fill="url(#paint13_linear_1_3)"/>
<path d="M74 62C74 60.8954 73.1046 60 72 60C70.8954 60 70 60.8954 70 62V195C70 196.105 70.8954 197 72 197C73.1046 197 74 196.105 74 195V62Z" fill="url(#paint14_linear_1_3)"/>
<path d="M64 52C64 50.8954 63.1046 50 62 50C60.8954 50 60 50.8954 60 52V185C60 186.105 60.8954 187 62 187C63.1046 187 64 186.105 64 185V52Z" fill="url(#paint15_linear_1_3)"/>
<path d="M54 62C54 60.8954 53.1046 60 52 60C50.8954 60 50 60.8954 50 62V195C50 196.105 50.8954 197 52 197C53.1046 197 54 196.105 54 195V62Z" fill="url(#paint16_linear_1_3)"/>
<path d="M44 52C44 50.8954 43.1046 50 42 50C40.8954 50 40 50.8954 40 52V185C40 186.105 40.8954 187 42 187C43.1046 187 44 186.105 44 185V52Z" fill="url(#paint17_linear_1_3)"/>
<path d="M34 42C34 40.8954 33.1046 40 32 40C30.8954 40 30 40.8954 30 42V175C30 176.105 30.8954 177 32 177C33.1046 177 34 176.105 34 175V42Z" fill="url(#paint18_linear_1_3)"/>
<path d="M24 32C24 30.8954 23.1046 30 22 30C20.8954 30 20 30.8954 20 32V165C20 166.105 20.8954 167 22 167C23.1046 167 24 166.105 24 165V32Z" fill="url(#paint19_linear_1_3)"/>
<path d="M14 42C14 40.8954 13.1046 40 12 40C10.8954 40 10 40.8954 10 42V175C10 176.105 10.8954 177 12 177C13.1046 177 14 176.105 14 175V42Z" fill="url(#paint20_linear_1_3)"/>
<path d="M4 52C4 50.8954 3.10457 50 2 50C0.89543 50 0 50.8954 0 52V185C0 186.105 0.89543 187 2 187C3.10457 187 4 186.105 4 185V52Z" fill="url(#paint21_linear_1_3)"/>
<path d="M414 22C414 20.8954 413.105 20 412 20C410.895 20 410 20.8954 410 22V155C410 156.105 410.895 157 412 157C413.105 157 414 156.105 414 155V22Z" fill="url(#paint22_linear_1_3)"/>
<path d="M424 32C424 30.8954 423.105 30 422 30C420.895 30 420 30.8954 420 32V165C420 166.105 420.895 167 422 167C423.105 167 424 166.105 424 165V32Z" fill="url(#paint23_linear_1_3)"/>
<path d="M404 22C404 20.8954 403.105 20 402 20C400.895 20 400 20.8954 400 22V155C400 156.105 400.895 157 402 157C403.105 157 404 156.105 404 155V22Z" fill="url(#paint24_linear_1_3)"/>
<path d="M434 42C434 40.8954 433.105 40 432 40C430.895 40 430 40.8954 430 42V175C430 176.105 430.895 177 432 177C433.105 177 434 176.105 434 175V42Z" fill="url(#paint25_linear_1_3)"/>
<path d="M394 32C394 30.8954 393.105 30 392 30C390.895 30 390 30.8954 390 32V165C390 166.105 390.895 167 392 167C393.105 167 394 166.105 394 165V32Z" fill="url(#paint26_linear_1_3)"/>
<path d="M384 22C384 20.8954 383.105 20 382 20C380.895 20 380 20.8954 380 22V155C380 156.105 380.895 157 382 157C383.105 157 384 156.105 384 155V22Z" fill="url(#paint27_linear_1_3)"/>
<path d="M374 32C374 30.8954 373.105 30 372 30C370.895 30 370 30.8954 370 32V165C370 166.105 370.895 167 372 167C373.105 167 374 166.105 374 165V32Z" fill="url(#paint28_linear_1_3)"/>
<path d="M364 42C364 40.8954 363.105 40 362 40C360.895 40 360 40.8954 360 42V175C360 176.105 360.895 177 362 177C363.105 177 364 176.105 364 175V42Z" fill="url(#paint29_linear_1_3)"/>
<path d="M354 42C354 40.8954 353.105 40 352 40C350.895 40 350 40.8954 350 42V175C350 176.105 350.895 177 352 177C353.105 177 354 176.105 354 175V42Z" fill="url(#paint30_linear_1_3)"/>
<path d="M344 32C344 30.8954 343.105 30 342 30C340.895 30 340 30.8954 340 32V165C340 166.105 340.895 167 342 167C343.105 167 344 166.105 344 165V32Z" fill="url(#paint31_linear_1_3)"/>
<path d="M334 42C334 40.8954 333.105 40 332 40C330.895 40 330 40.8954 330 42V175C330 176.105 330.895 177 332 177C333.105 177 334 176.105 334 175V42Z" fill="url(#paint32_linear_1_3)"/>
<path d="M324 52C324 50.8954 323.105 50 322 50C320.895 50 320 50.8954 320 52V185C320 186.105 320.895 187 322 187C323.105 187 324 186.105 324 185V52Z" fill="url(#paint33_linear_1_3)"/>
<path d="M314 52C314 50.8954 313.105 50 312 50C310.895 50 310 50.8954 310 52V185C310 186.105 310.895 187 312 187C313.105 187 314 186.105 314 185V52Z" fill="url(#paint34_linear_1_3)"/>
<path d="M304 62C304 60.8954 303.105 60 302 60C300.895 60 300 60.8954 300 62V195C300 196.105 300.895 197 302 197C303.105 197 304 196.105 304 195V62Z" fill="url(#paint35_linear_1_3)"/>
<path d="M294 52C294 50.8954 293.105 50 292 50C290.895 50 290 50.8954 290 52V185C290 186.105 290.895 187 292 187C293.105 187 294 186.105 294 185V52Z" fill="url(#paint36_linear_1_3)"/>
<path d="M284 42C284 40.8954 283.105 40 282 40C280.895 40 280 40.8954 280 42V175C280 176.105 280.895 177 282 177C283.105 177 284 176.105 284 175V42Z" fill="url(#paint37_linear_1_3)"/>
<path d="M274 52C274 50.8954 273.105 50 272 50C270.895 50 270 50.8954 270 52V185C270 186.105 270.895 187 272 187C273.105 187 274 186.105 274 185V52Z" fill="url(#paint38_linear_1_3)"/>
<path d="M264 42C264 40.8954 263.105 40 262 40C260.895 40 260 40.8954 260 42V175C260 176.105 260.895 177 262 177C263.105 177 264 176.105 264 175V42Z" fill="url(#paint39_linear_1_3)"/>
<path d="M254 32C254 30.8954 253.105 30 252 30C250.895 30 250 30.8954 250 32V165C250 166.105 250.895 167 252 167C253.105 167 254 166.105 254 165V32Z" fill="url(#paint40_linear_1_3)"/>
<path d="M244 32C244 30.8954 243.105 30 242 30C240.895 30 240 30.8954 240 32V165C240 166.105 240.895 167 242 167C243.105 167 244 166.105 244 165V32Z" fill="url(#paint41_linear_1_3)"/>
<path d="M614 52C614 50.8954 613.105 50 612 50C610.895 50 610 50.8954 610 52V185C610 186.105 610.895 187 612 187C613.105 187 614 186.105 614 185V52Z" fill="url(#paint42_linear_1_3)"/>
<path d="M624 52C624 50.8954 623.105 50 622 50C620.895 50 620 50.8954 620 52V185C620 186.105 620.895 187 622 187C623.105 187 624 186.105 624 185V52Z" fill="url(#paint43_linear_1_3)"/>
<path d="M604 52C604 50.8954 603.105 50 602 50C600.895 50 600 50.8954 600 52V185C600 186.105 600.895 187 602 187C603.105 187 604 186.105 604 185V52Z" fill="url(#paint44_linear_1_3)"/>
<path d="M634 62C634 60.8954 633.105 60 632 60C630.895 60 630 60.8954 630 62V195C630 196.105 630.895 197 632 197C633.105 197 634 196.105 634 195V62Z" fill="url(#paint45_linear_1_3)"/>
<path d="M594 52C594 50.8954 593.105 50 592 50C590.895 50 590 50.8954 590 52V185C590 186.105 590.895 187 592 187C593.105 187 594 186.105 594 185V52Z" fill="url(#paint46_linear_1_3)"/>
<path d="M584 43C584 41.8954 583.105 41 582 41C580.895 41 580 41.8954 580 43V176C580 177.105 580.895 178 582 178C583.105 178 584 177.105 584 176V43Z" fill="url(#paint47_linear_1_3)"/>
<path d="M574 52C574 50.8954 573.105 50 572 50C570.895 50 570 50.8954 570 52V185C570 186.105 570.895 187 572 187C573.105 187 574 186.105 574 185V52Z" fill="url(#paint48_linear_1_3)"/>
<path d="M564 62C564 60.8954 563.105 60 562 60C560.895 60 560 60.8954 560 62V195C560 196.105 560.895 197 562 197C563.105 197 564 196.105 564 195V62Z" fill="url(#paint49_linear_1_3)"/>
<path d="M554 62C554 60.8954 553.105 60 552 60C550.895 60 550 60.8954 550 62V195C550 196.105 550.895 197 552 197C553.105 197 554 196.105 554 195V62Z" fill="url(#paint50_linear_1_3)"/>
<path d="M544 52C544 50.8954 543.105 50 542 50C540.895 50 540 50.8954 540 52V185C540 186.105 540.895 187 542 187C543.105 187 544 186.105 544 185V52Z" fill="url(#paint51_linear_1_3)"/>
<path d="M534 62C534 60.8954 533.105 60 532 60C530.895 60 530 60.8954 530 62V195C530 196.105 530.895 197 532 197C533.105 197 534 196.105 534 195V62Z" fill="url(#paint52_linear_1_3)"/>
<path d="M524 72C524 70.8954 523.105 70 522 70C520.895 70 520 70.8954 520 72V205C520 206.105 520.895 207 522 207C523.105 207 524 206.105 524 205V72Z" fill="url(#paint53_linear_1_3)"/>
<path d="M514 72C514 70.8954 513.105 70 512 70C510.895 70 510 70.8954 510 72V205C510 206.105 510.895 207 512 207C513.105 207 514 206.105 514 205V72Z" fill="url(#paint54_linear_1_3)"/>
<path d="M504 82C504 80.8954 503.105 80 502 80C500.895 80 500 80.8954 500 82V215C500 216.105 500.895 217 502 217C503.105 217 504 216.105 504 215V82Z" fill="url(#paint55_linear_1_3)"/>
<path d="M494 72C494 70.8954 493.105 70 492 70C490.895 70 490 70.8954 490 72V205C490 206.105 490.895 207 492 207C493.105 207 494 206.105 494 205V72Z" fill="url(#paint56_linear_1_3)"/>
<path d="M484 62C484 60.8954 483.105 60 482 60C480.895 60 480 60.8954 480 62V195C480 196.105 480.895 197 482 197C483.105 197 484 196.105 484 195V62Z" fill="url(#paint57_linear_1_3)"/>
<path d="M474 72C474 70.8954 473.105 70 472 70C470.895 70 470 70.8954 470 72V205C470 206.105 470.895 207 472 207C473.105 207 474 206.105 474 205V72Z" fill="url(#paint58_linear_1_3)"/>
<path d="M464 62C464 60.8954 463.105 60 462 60C460.895 60 460 60.8954 460 62V195C460 196.105 460.895 197 462 197C463.105 197 464 196.105 464 195V62Z" fill="url(#paint59_linear_1_3)"/>
<path d="M794 62C794 60.8954 793.105 60 792 60C790.895 60 790 60.8954 790 62V195C790 196.105 790.895 197 792 197C793.105 197 794 196.105 794 195V62Z" fill="url(#paint60_linear_1_3)"/>
<path d="M804 62C804 60.8954 803.105 60 802 60C800.895 60 800 60.8954 800 62V195C800 196.105 800.895 197 802 197C803.105 197 804 196.105 804 195V62Z" fill="url(#paint61_linear_1_3)"/>
<path d="M784 52C784 50.8954 783.105 50 782 50C780.895 50 780 50.8954 780 52V185C780 186.105 780.895 187 782 187C783.105 187 784 186.105 784 185V52Z" fill="url(#paint62_linear_1_3)"/>
<path d="M814 62C814 60.8954 813.105 60 812 60C810.895 60 810 60.8954 810 62V195C810 196.105 810.895 197 812 197C813.105 197 814 196.105 814 195V62Z" fill="url(#paint63_linear_1_3)"/>
<path d="M774 52C774 50.8954 773.105 50 772 50C770.895 50 770 50.8954 770 52V185C770 186.105 770.895 187 772 187C773.105 187 774 186.105 774 185V52Z" fill="url(#paint64_linear_1_3)"/>
<path d="M764 43C764 41.8954 763.105 41 762 41C760.895 41 760 41.8954 760 43V176C760 177.105 760.895 178 762 178C763.105 178 764 177.105 764 176V43Z" fill="url(#paint65_linear_1_3)"/>
<path d="M754 52C754 50.8954 753.105 50 752 50C750.895 50 750 50.8954 750 52V185C750 186.105 750.895 187 752 187C753.105 187 754 186.105 754 185V52Z" fill="url(#paint66_linear_1_3)"/>
<path d="M744 62C744 60.8954 743.105 60 742 60C740.895 60 740 60.8954 740 62V195C740 196.105 740.895 197 742 197C743.105 197 744 196.105 744 195V62Z" fill="url(#paint67_linear_1_3)"/>
<path d="M734 62C734 60.8954 733.105 60 732 60C730.895 60 730 60.8954 730 62V195C730 196.105 730.895 197 732 197C733.105 197 734 196.105 734 195V62Z" fill="url(#paint68_linear_1_3)"/>
<path d="M724 52C724 50.8954 723.105 50 722 50C720.895 50 720 50.8954 720 52V185C720 186.105 720.895 187 722 187C723.105 187 724 186.105 724 185V52Z" fill="url(#paint69_linear_1_3)"/>
<path d="M714 62C714 60.8954 713.105 60 712 60C710.895 60 710 60.8954 710 62V195C710 196.105 710.895 197 712 197C713.105 197 714 196.105 714 195V62Z" fill="url(#paint70_linear_1_3)"/>
<path d="M704 72C704 70.8954 703.105 70 702 70C700.895 70 700 70.8954 700 72V205C700 206.105 700.895 207 702 207C703.105 207 704 206.105 704 205V72Z" fill="url(#paint71_linear_1_3)"/>
<path d="M694 72C694 70.8954 693.105 70 692 70C690.895 70 690 70.8954 690 72V205C690 206.105 690.895 207 692 207C693.105 207 694 206.105 694 205V72Z" fill="url(#paint72_linear_1_3)"/>
<path d="M684 82C684 80.8954 683.105 80 682 80C680.895 80 680 80.8954 680 82V215C680 216.105 680.895 217 682 217C683.105 217 684 216.105 684 215V82Z" fill="url(#paint73_linear_1_3)"/>
<path d="M674 72C674 70.8954 673.105 70 672 70C670.895 70 670 70.8954 670 72V205C670 206.105 670.895 207 672 207C673.105 207 674 206.105 674 205V72Z" fill="url(#paint74_linear_1_3)"/>
<path d="M664 62C664 60.8954 663.105 60 662 60C660.895 60 660 60.8954 660 62V195C660 196.105 660.895 197 662 197C663.105 197 664 196.105 664 195V62Z" fill="url(#paint75_linear_1_3)"/>
<path d="M654 72C654 70.8954 653.105 70 652 70C650.895 70 650 70.8954 650 72V205C650 206.105 650.895 207 652 207C653.105 207 654 206.105 654 205V72Z" fill="url(#paint76_linear_1_3)"/>
<path d="M644 62C644 60.8954 643.105 60 642 60C640.895 60 640 60.8954 640 62V195C640 196.105 640.895 197 642 197C643.105 197 644 196.105 644 195V62Z" fill="url(#paint77_linear_1_3)"/>
<path d="M974 82C974 80.8954 973.105 80 972 80C970.895 80 970 80.8954 970 82V215C970 216.105 970.895 217 972 217C973.105 217 974 216.105 974 215V82Z" fill="url(#paint78_linear_1_3)"/>
<path d="M984 82C984 80.8954 983.105 80 982 80C980.895 80 980 80.8954 980 82V215C980 216.105 980.895 217 982 217C983.105 217 984 216.105 984 215V82Z" fill="url(#paint79_linear_1_3)"/>
<path d="M964 82C964 80.8954 963.105 80 962 80C960.895 80 960 80.8954 960 82V215C960 216.105 960.895 217 962 217C963.105 217 964 216.105 964 215V82Z" fill="url(#paint80_linear_1_3)"/>
<path d="M994 92C994 90.8954 993.105 90 992 90C990.895 90 990 90.8954 990 92V225C990 226.105 990.895 227 992 227C993.105 227 994 226.105 994 225V92Z" fill="url(#paint81_linear_1_3)"/>
<path d="M954 82C954 80.8954 953.105 80 952 80C950.895 80 950 80.8954 950 82V215C950 216.105 950.895 217 952 217C953.105 217 954 216.105 954 215V82Z" fill="url(#paint82_linear_1_3)"/>
<path d="M944 73C944 71.8954 943.105 71 942 71C940.895 71 940 71.8954 940 73V206C940 207.105 940.895 208 942 208C943.105 208 944 207.105 944 206V73Z" fill="url(#paint83_linear_1_3)"/>
<path d="M934 62C934 60.8954 933.105 60 932 60C930.895 60 930 60.8954 930 62V195C930 196.105 930.895 197 932 197C933.105 197 934 196.105 934 195V62Z" fill="url(#paint84_linear_1_3)"/>
<path d="M924 72C924 70.8954 923.105 70 922 70C920.895 70 920 70.8954 920 72V205C920 206.105 920.895 207 922 207C923.105 207 924 206.105 924 205V72Z" fill="url(#paint85_linear_1_3)"/>
<path d="M914 72C914 70.8954 913.105 70 912 70C910.895 70 910 70.8954 910 72V205C910 206.105 910.895 207 912 207C913.105 207 914 206.105 914 205V72Z" fill="url(#paint86_linear_1_3)"/>
<path d="M904 62C904 60.8954 903.105 60 902 60C900.895 60 900 60.8954 900 62V195C900 196.105 900.895 197 902 197C903.105 197 904 196.105 904 195V62Z" fill="url(#paint87_linear_1_3)"/>
<path d="M894 72C894 70.8954 893.105 70 892 70C890.895 70 890 70.8954 890 72V205C890 206.105 890.895 207 892 207C893.105 207 894 206.105 894 205V72Z" fill="url(#paint88_linear_1_3)"/>
<path d="M884 82C884 80.8954 883.105 80 882 80C880.895 80 880 80.8954 880 82V215C880 216.105 880.895 217 882 217C883.105 217 884 216.105 884 215V82Z" fill="url(#paint89_linear_1_3)"/>
<path d="M874 82C874 80.8954 873.105 80 872 80C870.895 80 870 80.8954 870 82V215C870 216.105 870.895 217 872 217C873.105 217 874 216.105 874 215V82Z" fill="url(#paint90_linear_1_3)"/>
<path d="M864 92C864 90.8954 863.105 90 862 90C860.895 90 860 90.8954 860 92V225C860 226.105 860.895 227 862 227C863.105 227 864 226.105 864 225V92Z" fill="url(#paint91_linear_1_3)"/>
<path d="M854 82C854 80.8954 853.105 80 852 80C850.895 80 850 80.8954 850 82V215C850 216.105 850.895 217 852 217C853.105 217 854 216.105 854 215V82Z" fill="url(#paint92_linear_1_3)"/>
<path d="M844 72C844 70.8954 843.105 70 842 70C840.895 70 840 70.8954 840 72V205C840 206.105 840.895 207 842 207C843.105 207 844 206.105 844 205V72Z" fill="url(#paint93_linear_1_3)"/>
<path d="M834 82C834 80.8954 833.105 80 832 80C830.895 80 830 80.8954 830 82V215C830 216.105 830.895 217 832 217C833.105 217 834 216.105 834 215V82Z" fill="url(#paint94_linear_1_3)"/>
<path d="M824 72C824 70.8954 823.105 70 822 70C820.895 70 820 70.8954 820 72V205C820 206.105 820.895 207 822 207C823.105 207 824 206.105 824 205V72Z" fill="url(#paint95_linear_1_3)"/>
<path d="M454 52C454 50.8954 453.105 50 452 50C450.895 50 450 50.8954 450 52V185C450 186.105 450.895 187 452 187C453.105 187 454 186.105 454 185V52Z" fill="url(#paint96_linear_1_3)"/>
<path d="M444 52C444 50.8954 443.105 50 442 50C440.895 50 440 50.8954 440 52V185C440 186.105 440.895 187 442 187C443.105 187 444 186.105 444 185V52Z" fill="url(#paint97_linear_1_3)"/>
<path d="M1014 82C1014 80.8954 1013.1 80 1012 80C1010.9 80 1010 80.8954 1010 82V215C1010 216.105 1010.9 217 1012 217C1013.1 217 1014 216.105 1014 215V82Z" fill="url(#paint98_linear_1_3)"/>
<path d="M1024 72C1024 70.8954 1023.1 70 1022 70C1020.9 70 1020 70.8954 1020 72V205C1020 206.105 1020.9 207 1022 207C1023.1 207 1024 206.105 1024 205V72Z" fill="url(#paint99_linear_1_3)"/>
<path d="M1004 82C1004 80.8954 1003.1 80 1002 80C1000.9 80 1000 80.8954 1000 82V215C1000 216.105 1000.9 217 1002 217C1003.1 217 1004 216.105 1004 215V82Z" fill="url(#paint100_linear_1_3)"/>
<path d="M1034 82C1034 80.8954 1033.1 80 1032 80C1030.9 80 1030 80.8954 1030 82V215C1030 216.105 1030.9 217 1032 217C1033.1 217 1034 216.105 1034 215V82Z" fill="url(#paint101_linear_1_3)"/>
<path d="M1194 92C1194 90.8954 1193.1 90 1192 90C1190.9 90 1190 90.8954 1190 92V225C1190 226.105 1190.9 227 1192 227C1193.1 227 1194 226.105 1194 225V92Z" fill="url(#paint102_linear_1_3)"/>
<path d="M1184 83C1184 81.8954 1183.1 81 1182 81C1180.9 81 1180 81.8954 1180 83V216C1180 217.105 1180.9 218 1182 218C1183.1 218 1184 217.105 1184 216V83Z" fill="url(#paint103_linear_1_3)"/>
<path d="M1174 92C1174 90.8954 1173.1 90 1172 90C1170.9 90 1170 90.8954 1170 92V225C1170 226.105 1170.9 227 1172 227C1173.1 227 1174 226.105 1174 225V92Z" fill="url(#paint104_linear_1_3)"/>
<path d="M1164 102C1164 100.895 1163.1 100 1162 100C1160.9 100 1160 100.895 1160 102V235C1160 236.105 1160.9 237 1162 237C1163.1 237 1164 236.105 1164 235V102Z" fill="url(#paint105_linear_1_3)"/>
<path d="M1154 102C1154 100.895 1153.1 100 1152 100C1150.9 100 1150 100.895 1150 102V235C1150 236.105 1150.9 237 1152 237C1153.1 237 1154 236.105 1154 235V102Z" fill="url(#paint106_linear_1_3)"/>
<path d="M1144 92C1144 90.8954 1143.1 90 1142 90C1140.9 90 1140 90.8954 1140 92V225C1140 226.105 1140.9 227 1142 227C1143.1 227 1144 226.105 1144 225V92Z" fill="url(#paint107_linear_1_3)"/>
<path d="M1134 102C1134 100.895 1133.1 100 1132 100C1130.9 100 1130 100.895 1130 102V235C1130 236.105 1130.9 237 1132 237C1133.1 237 1134 236.105 1134 235V102Z" fill="url(#paint108_linear_1_3)"/>
<path d="M1124 112C1124 110.895 1123.1 110 1122 110C1120.9 110 1120 110.895 1120 112V245C1120 246.105 1120.9 247 1122 247C1123.1 247 1124 246.105 1124 245V112Z" fill="url(#paint109_linear_1_3)"/>
<path d="M1114 112C1114 110.895 1113.1 110 1112 110C1110.9 110 1110 110.895 1110 112V245C1110 246.105 1110.9 247 1112 247C1113.1 247 1114 246.105 1114 245V112Z" fill="url(#paint110_linear_1_3)"/>
<path d="M1274 62C1274 60.8954 1273.1 60 1272 60C1270.9 60 1270 60.8954 1270 62V195C1270 196.105 1270.9 197 1272 197C1273.1 197 1274 196.105 1274 195V62Z" fill="url(#paint111_linear_1_3)"/>
<path d="M1264 53C1264 51.8954 1263.1 51 1262 51C1260.9 51 1260 51.8954 1260 53V186C1260 187.105 1260.9 188 1262 188C1263.1 188 1264 187.105 1264 186V53Z" fill="url(#paint112_linear_1_3)"/>
<path d="M1254 62C1254 60.8954 1253.1 60 1252 60C1250.9 60 1250 60.8954 1250 62V195C1250 196.105 1250.9 197 1252 197C1253.1 197 1254 196.105 1254 195V62Z" fill="url(#paint113_linear_1_3)"/>
<path d="M1244 72C1244 70.8954 1243.1 70 1242 70C1240.9 70 1240 70.8954 1240 72V205C1240 206.105 1240.9 207 1242 207C1243.1 207 1244 206.105 1244 205V72Z" fill="url(#paint114_linear_1_3)"/>
<path d="M1234 72C1234 70.8954 1233.1 70 1232 70C1230.9 70 1230 70.8954 1230 72V205C1230 206.105 1230.9 207 1232 207C1233.1 207 1234 206.105 1234 205V72Z" fill="url(#paint115_linear_1_3)"/>
<path d="M1224 62C1224 60.8954 1223.1 60 1222 60C1220.9 60 1220 60.8954 1220 62V195C1220 196.105 1220.9 197 1222 197C1223.1 197 1224 196.105 1224 195V62Z" fill="url(#paint116_linear_1_3)"/>
<path d="M1214 72C1214 70.8954 1213.1 70 1212 70C1210.9 70 1210 70.8954 1210 72V205C1210 206.105 1210.9 207 1212 207C1213.1 207 1214 206.105 1214 205V72Z" fill="url(#paint117_linear_1_3)"/>
<path d="M1204 82C1204 80.8954 1203.1 80 1202 80C1200.9 80 1200 80.8954 1200 82V215C1200 216.105 1200.9 217 1202 217C1203.1 217 1204 216.105 1204 215V82Z" fill="url(#paint118_linear_1_3)"/>
<path d="M1194 82C1194 80.8954 1193.1 80 1192 80C1190.9 80 1190 80.8954 1190 82V215C1190 216.105 1190.9 217 1192 217C1193.1 217 1194 216.105 1194 215V82Z" fill="url(#paint119_linear_1_3)"/>
<path d="M1364 52C1364 50.8954 1363.1 50 1362 50C1360.9 50 1360 50.8954 1360 52V185C1360 186.105 1360.9 187 1362 187C1363.1 187 1364 186.105 1364 185V52Z" fill="url(#paint120_linear_1_3)"/>
<path d="M1354 43C1354 41.8954 1353.1 41 1352 41C1350.9 41 1350 41.8954 1350 43V176C1350 177.105 1350.9 178 1352 178C1353.1 178 1354 177.105 1354 176V43Z" fill="url(#paint121_linear_1_3)"/>
<path d="M1344 52C1344 50.8954 1343.1 50 1342 50C1340.9 50 1340 50.8954 1340 52V185C1340 186.105 1340.9 187 1342 187C1343.1 187 1344 186.105 1344 185V52Z" fill="url(#paint122_linear_1_3)"/>
<path d="M1334 62C1334 60.8954 1333.1 60 1332 60C1330.9 60 1330 60.8954 1330 62V195C1330 196.105 1330.9 197 1332 197C1333.1 197 1334 196.105 1334 195V62Z" fill="url(#paint123_linear_1_3)"/>
<path d="M1324 62C1324 60.8954 1323.1 60 1322 60C1320.9 60 1320 60.8954 1320 62V195C1320 196.105 1320.9 197 1322 197C1323.1 197 1324 196.105 1324 195V62Z" fill="url(#paint124_linear_1_3)"/>
<path d="M1314 52C1314 50.8954 1313.1 50 1312 50C1310.9 50 1310 50.8954 1310 52V185C1310 186.105 1310.9 187 1312 187C1313.1 187 1314 186.105 1314 185V52Z" fill="url(#paint125_linear_1_3)"/>
<path d="M1304 62C1304 60.8954 1303.1 60 1302 60C1300.9 60 1300 60.8954 1300 62V195C1300 196.105 1300.9 197 1302 197C1303.1 197 1304 196.105 1304 195V62Z" fill="url(#paint126_linear_1_3)"/>
<path d="M1294 72C1294 70.8954 1293.1 70 1292 70C1290.9 70 1290 70.8954 1290 72V205C1290 206.105 1290.9 207 1292 207C1293.1 207 1294 206.105 1294 205V72Z" fill="url(#paint127_linear_1_3)"/>
<path d="M1284 72C1284 70.8954 1283.1 70 1282 70C1280.9 70 1280 70.8954 1280 72V205C1280 206.105 1280.9 207 1282 207C1283.1 207 1284 206.105 1284 205V72Z" fill="url(#paint128_linear_1_3)"/>
<path d="M1394 42C1394 40.8954 1393.1 40 1392 40C1390.9 40 1390 40.8954 1390 42V175C1390 176.105 1390.9 177 1392 177C1393.1 177 1394 176.105 1394 175V42Z" fill="url(#paint129_linear_1_3)"/>
<path d="M1384 52C1384 50.8954 1383.1 50 1382 50C1380.9 50 1380 50.8954 1380 52V185C1380 186.105 1380.9 187 1382 187C1383.1 187 1384 186.105 1384 185V52Z" fill="url(#paint130_linear_1_3)"/>
<path d="M1374 42C1374 40.8954 1373.1 40 1372 40C1370.9 40 1370 40.8954 1370 42V175C1370 176.105 1370.9 177 1372 177C1373.1 177 1374 176.105 1374 175V42Z" fill="url(#paint131_linear_1_3)"/>
<path d="M1104 122C1104 120.895 1103.1 120 1102 120C1100.9 120 1100 120.895 1100 122V255C1100 256.105 1100.9 257 1102 257C1103.1 257 1104 256.105 1104 255V122Z" fill="url(#paint132_linear_1_3)"/>
<path d="M1094 112C1094 110.895 1093.1 110 1092 110C1090.9 110 1090 110.895 1090 112V245C1090 246.105 1090.9 247 1092 247C1093.1 247 1094 246.105 1094 245V112Z" fill="url(#paint133_linear_1_3)"/>
<path d="M1084 102C1084 100.895 1083.1 100 1082 100C1080.9 100 1080 100.895 1080 102V235C1080 236.105 1080.9 237 1082 237C1083.1 237 1084 236.105 1084 235V102Z" fill="url(#paint134_linear_1_3)"/>
<path d="M1074 112C1074 110.895 1073.1 110 1072 110C1070.9 110 1070 110.895 1070 112V245C1070 246.105 1070.9 247 1072 247C1073.1 247 1074 246.105 1074 245V112Z" fill="url(#paint135_linear_1_3)"/>
<path d="M1064 102C1064 100.895 1063.1 100 1062 100C1060.9 100 1060 100.895 1060 102V235C1060 236.105 1060.9 237 1062 237C1063.1 237 1064 236.105 1064 235V102Z" fill="url(#paint136_linear_1_3)"/>
<path d="M1054 92C1054 90.8954 1053.1 90 1052 90C1050.9 90 1050 90.8954 1050 92V225C1050 226.105 1050.9 227 1052 227C1053.1 227 1054 226.105 1054 225V92Z" fill="url(#paint137_linear_1_3)"/>
<path d="M1044 92C1044 90.8954 1043.1 90 1042 90C1040.9 90 1040 90.8954 1040 92V225C1040 226.105 1040.9 227 1042 227C1043.1 227 1044 226.105 1044 225V92Z" fill="url(#paint138_linear_1_3)"/>
<path d="M234 22C234 20.8954 233.105 20 232 20C230.895 20 230 20.8954 230 22V155C230 156.105 230.895 157 232 157C233.105 157 234 156.105 234 155V22Z" fill="url(#paint139_linear_1_3)"/>
<path d="M224 32C224 30.8954 223.105 30 222 30C220.895 30 220 30.8954 220 32V165C220 166.105 220.895 167 222 167C223.105 167 224 166.105 224 165V32Z" fill="url(#paint140_linear_1_3)"/>
<defs>
<linearGradient id="paint0_linear_1_3" x1="390.17" y1="525" x2="-9.46172" y2="13687.9" gradientUnits="userSpaceOnUse">
<stop stop-color="#CE6708"/>
<stop offset="1" stop-color="#C0FECF" stop-opacity="0"/>
</linearGradient>
<linearGradient id="paint1_linear_1_3" x1="400.17" y1="535" x2="0.538277" y2="13697.9" gradientUnits="userSpaceOnUse">
<stop stop-color="#CE6708"/>
<stop offset="1" stop-color="#C0FECF" stop-opacity="0"/>
</linearGradient>
<linearGradient id="paint2_linear_1_3" x1="380.17" y1="535" x2="-19.4617" y2="13697.9" gradientUnits="userSpaceOnUse">
<stop stop-color="#CE6708"/>
<stop offset="1" stop-color="#C0FECF" stop-opacity="0"/>
</linearGradient>
<linearGradient id="paint3_linear_1_3" x1="410.17" y1="545" x2="10.5383" y2="13707.9" gradientUnits="userSpaceOnUse">
<stop stop-color="#CE6708"/>
<stop offset="1" stop-color="#C0FECF" stop-opacity="0"/>
</linearGradient>
<linearGradient id="paint4_linear_1_3" x1="370.17" y1="545" x2="-29.4617" y2="13707.9" gradientUnits="userSpaceOnUse">
<stop stop-color="#CE6708"/>
<stop offset="1" stop-color="#C0FECF" stop-opacity="0"/>
</linearGradient>
<linearGradient id="paint5_linear_1_3" x1="360.17" y1="535" x2="-39.4617" y2="13697.9" gradientUnits="userSpaceOnUse">
<stop stop-color="#CE6708"/>
<stop offset="1" stop-color="#C0FECF" stop-opacity="0"/>
</linearGradient>
<linearGradient id="paint6_linear_1_3" x1="350.17" y1="545" x2="-49.4617" y2="13707.9" gradientUnits="userSpaceOnUse">
<stop stop-color="#CE6708"/>
<stop offset="1" stop-color="#C0FECF" stop-opacity="0"/>
</linearGradient>
<linearGradient id="paint7_linear_1_3" x1="340.17" y1="555" x2="-59.4617" y2="13717.9" gradientUnits="userSpaceOnUse">
<stop stop-color="#CE6708"/>
<stop offset="1" stop-color="#C0FECF" stop-opacity="0"/>
</linearGradient>
<linearGradient id="paint8_linear_1_3" x1="330.17" y1="565" x2="-69.4617" y2="13727.9" gradientUnits="userSpaceOnUse">
<stop stop-color="#CE6708"/>
<stop offset="1" stop-color="#C0FECF" stop-opacity="0"/>
</linearGradient>
<linearGradient id="paint9_linear_1_3" x1="320.17" y1="555" x2="-79.4617" y2="13717.9" gradientUnits="userSpaceOnUse">
<stop stop-color="#CE6708"/>
<stop offset="1" stop-color="#C0FECF" stop-opacity="0"/>
</linearGradient>
<linearGradient id="paint10_linear_1_3" x1="310.17" y1="565" x2="-89.4617" y2="13727.9" gradientUnits="userSpaceOnUse">
<stop stop-color="#CE6708"/>
<stop offset="1" stop-color="#C0FECF" stop-opacity="0"/>
</linearGradient>
<linearGradient id="paint11_linear_1_3" x1="300.17" y1="575" x2="-99.4617" y2="13737.9" gradientUnits="userSpaceOnUse">
<stop stop-color="#CE6708"/>
<stop offset="1" stop-color="#C0FECF" stop-opacity="0"/>
</linearGradient>
<linearGradient id="paint12_linear_1_3" x1="290.17" y1="585" x2="-109.462" y2="13747.9" gradientUnits="userSpaceOnUse">
<stop stop-color="#CE6708"/>
<stop offset="1" stop-color="#C0FECF" stop-opacity="0"/>
</linearGradient>
<linearGradient id="paint13_linear_1_3" x1="280.17" y1="595" x2="-119.462" y2="13757.9" gradientUnits="userSpaceOnUse">
<stop stop-color="#CE6708"/>
<stop offset="1" stop-color="#C0FECF" stop-opacity="0"/>
</linearGradient>
<linearGradient id="paint14_linear_1_3" x1="270.17" y1="585" x2="-129.462" y2="13747.9" gradientUnits="userSpaceOnUse">
<stop stop-color="#CE6708"/>
<stop offset="1" stop-color="#C0FECF" stop-opacity="0"/>
</linearGradient>
<linearGradient id="paint15_linear_1_3" x1="260.17" y1="575" x2="-139.462" y2="13737.9" gradientUnits="userSpaceOnUse">
<stop stop-color="#CE6708"/>
<stop offset="1" stop-color="#C0FECF" stop-opacity="0"/>
</linearGradient>
<linearGradient id="paint16_linear_1_3" x1="250.17" y1="585" x2="-149.462" y2="13747.9" gradientUnits="userSpaceOnUse">
<stop stop-color="#CE6708"/>
<stop offset="1" stop-color="#C0FECF" stop-opacity="0"/>
</linearGradient>
<linearGradient id="paint17_linear_1_3" x1="240.17" y1="575" x2="-159.462" y2="13737.9" gradientUnits="userSpaceOnUse">
<stop stop-color="#CE6708"/>
<stop offset="1" stop-color="#C0FECF" stop-opacity="0"/>
</linearGradient>
<linearGradient id="paint18_linear_1_3" x1="230.17" y1="565" x2="-169.462" y2="13727.9" gradientUnits="userSpaceOnUse">
<stop stop-color="#CE6708"/>
<stop offset="1" stop-color="#C0FECF" stop-opacity="0"/>
</linearGradient>
<linearGradient id="paint19_linear_1_3" x1="220.17" y1="555" x2="-179.462" y2="13717.9" gradientUnits="userSpaceOnUse">
<stop stop-color="#CE6708"/>
<stop offset="1" stop-color="#C0FECF" stop-opacity="0"/>
</linearGradient>
<linearGradient id="paint20_linear_1_3" x1="210.17" y1="565" x2="-189.462" y2="13727.9" gradientUnits="userSpaceOnUse">
<stop stop-color="#CE6708"/>
<stop offset="1" stop-color="#C0FECF" stop-opacity="0"/>
</linearGradient>
<linearGradient id="paint21_linear_1_3" x1="200.17" y1="575" x2="-199.462" y2="13737.9" gradientUnits="userSpaceOnUse">
<stop stop-color="#CE6708"/>
<stop offset="1" stop-color="#C0FECF" stop-opacity="0"/>
</linearGradient>
<linearGradient id="paint22_linear_1_3" x1="610.17" y1="545" x2="210.538" y2="13707.9" gradientUnits="userSpaceOnUse">
<stop stop-color="#CE6708"/>
<stop offset="1" stop-color="#C0FECF" stop-opacity="0"/>
</linearGradient>
<linearGradient id="paint23_linear_1_3" x1="620.17" y1="555" x2="220.538" y2="13717.9" gradientUnits="userSpaceOnUse">
<stop stop-color="#CE6708"/>
<stop offset="1" stop-color="#C0FECF" stop-opacity="0"/>
</linearGradient>
<linearGradient id="paint24_linear_1_3" x1="600.17" y1="545" x2="200.538" y2="13707.9" gradientUnits="userSpaceOnUse">
<stop stop-color="#CE6708"/>
<stop offset="1" stop-color="#C0FECF" stop-opacity="0"/>
</linearGradient>
<linearGradient id="paint25_linear_1_3" x1="630.17" y1="565" x2="230.538" y2="13727.9" gradientUnits="userSpaceOnUse">
<stop stop-color="#CE6708"/>
<stop offset="1" stop-color="#C0FECF" stop-opacity="0"/>
</linearGradient>
<linearGradient id="paint26_linear_1_3" x1="590.17" y1="555" x2="190.538" y2="13717.9" gradientUnits="userSpaceOnUse">
<stop stop-color="#CE6708"/>
<stop offset="1" stop-color="#C0FECF" stop-opacity="0"/>
</linearGradient>
<linearGradient id="paint27_linear_1_3" x1="580.17" y1="545" x2="180.538" y2="13707.9" gradientUnits="userSpaceOnUse">
<stop stop-color="#CE6708"/>
<stop offset="1" stop-color="#C0FECF" stop-opacity="0"/>
</linearGradient>
<linearGradient id="paint28_linear_1_3" x1="570.17" y1="555" x2="170.538" y2="13717.9" gradientUnits="userSpaceOnUse">
<stop stop-color="#CE6708"/>
<stop offset="1" stop-color="#C0FECF" stop-opacity="0"/>
</linearGradient>
<linearGradient id="paint29_linear_1_3" x1="560.17" y1="565" x2="160.538" y2="13727.9" gradientUnits="userSpaceOnUse">
<stop stop-color="#CE6708"/>
<stop offset="1" stop-color="#C0FECF" stop-opacity="0"/>
</linearGradient>
<linearGradient id="paint30_linear_1_3" x1="550.17" y1="565" x2="150.538" y2="13727.9" gradientUnits="userSpaceOnUse">
<stop stop-color="#CE6708"/>
<stop offset="1" stop-color="#C0FECF" stop-opacity="0"/>
</linearGradient>
<linearGradient id="paint31_linear_1_3" x1="540.17" y1="555" x2="140.538" y2="13717.9" gradientUnits="userSpaceOnUse">
<stop stop-color="#CE6708"/>
<stop offset="1" stop-color="#C0FECF" stop-opacity="0"/>
</linearGradient>
<linearGradient id="paint32_linear_1_3" x1="530.17" y1="565" x2="130.538" y2="13727.9" gradientUnits="userSpaceOnUse">
<stop stop-color="#CE6708"/>
<stop offset="1" stop-color="#C0FECF" stop-opacity="0"/>
</linearGradient>
<linearGradient id="paint33_linear_1_3" x1="520.17" y1="575" x2="120.538" y2="13737.9" gradientUnits="userSpaceOnUse">
<stop stop-color="#CE6708"/>
<stop offset="1" stop-color="#C0FECF" stop-opacity="0"/>
</linearGradient>
<linearGradient id="paint34_linear_1_3" x1="510.17" y1="575" x2="110.538" y2="13737.9" gradientUnits="userSpaceOnUse">
<stop stop-color="#CE6708"/>
<stop offset="1" stop-color="#C0FECF" stop-opacity="0"/>
</linearGradient>
<linearGradient id="paint35_linear_1_3" x1="500.17" y1="585" x2="100.538" y2="13747.9" gradientUnits="userSpaceOnUse">
<stop stop-color="#CE6708"/>
<stop offset="1" stop-color="#C0FECF" stop-opacity="0"/>
</linearGradient>
<linearGradient id="paint36_linear_1_3" x1="490.17" y1="575" x2="90.5383" y2="13737.9" gradientUnits="userSpaceOnUse">
<stop stop-color="#CE6708"/>
<stop offset="1" stop-color="#C0FECF" stop-opacity="0"/>
</linearGradient>
<linearGradient id="paint37_linear_1_3" x1="480.17" y1="565" x2="80.5383" y2="13727.9" gradientUnits="userSpaceOnUse">
<stop stop-color="#CE6708"/>
<stop offset="1" stop-color="#C0FECF" stop-opacity="0"/>
</linearGradient>
<linearGradient id="paint38_linear_1_3" x1="470.17" y1="575" x2="70.5383" y2="13737.9" gradientUnits="userSpaceOnUse">
<stop stop-color="#CE6708"/>
<stop offset="1" stop-color="#C0FECF" stop-opacity="0"/>
</linearGradient>
<linearGradient id="paint39_linear_1_3" x1="460.17" y1="565" x2="60.5383" y2="13727.9" gradientUnits="userSpaceOnUse">
<stop stop-color="#CE6708"/>
<stop offset="1" stop-color="#C0FECF" stop-opacity="0"/>
</linearGradient>
<linearGradient id="paint40_linear_1_3" x1="450.17" y1="555" x2="50.5383" y2="13717.9" gradientUnits="userSpaceOnUse">
<stop stop-color="#CE6708"/>
<stop offset="1" stop-color="#C0FECF" stop-opacity="0"/>
</linearGradient>
<linearGradient id="paint41_linear_1_3" x1="440.17" y1="555" x2="40.5383" y2="13717.9" gradientUnits="userSpaceOnUse">
<stop stop-color="#CE6708"/>
<stop offset="1" stop-color="#C0FECF" stop-opacity="0"/>
</linearGradient>
<linearGradient id="paint42_linear_1_3" x1="810.17" y1="575" x2="410.538" y2="13737.9" gradientUnits="userSpaceOnUse">
<stop stop-color="#CE6708"/>
<stop offset="1" stop-color="#C0FECF" stop-opacity="0"/>
</linearGradient>
<linearGradient id="paint43_linear_1_3" x1="820.17" y1="575" x2="420.538" y2="13737.9" gradientUnits="userSpaceOnUse">
<stop stop-color="#CE6708"/>
<stop offset="1" stop-color="#C0FECF" stop-opacity="0"/>
</linearGradient>
<linearGradient id="paint44_linear_1_3" x1="800.17" y1="575" x2="400.538" y2="13737.9" gradientUnits="userSpaceOnUse">
<stop stop-color="#CE6708"/>
<stop offset="1" stop-color="#C0FECF" stop-opacity="0"/>
</linearGradient>
<linearGradient id="paint45_linear_1_3" x1="830.17" y1="585" x2="430.538" y2="13747.9" gradientUnits="userSpaceOnUse">
<stop stop-color="#CE6708"/>
<stop offset="1" stop-color="#C0FECF" stop-opacity="0"/>
</linearGradient>
<linearGradient id="paint46_linear_1_3" x1="790.17" y1="575" x2="390.538" y2="13737.9" gradientUnits="userSpaceOnUse">
<stop stop-color="#CE6708"/>
<stop offset="1" stop-color="#C0FECF" stop-opacity="0"/>
</linearGradient>
<linearGradient id="paint47_linear_1_3" x1="780.17" y1="566" x2="380.538" y2="13728.9" gradientUnits="userSpaceOnUse">
<stop stop-color="#CE6708"/>
<stop offset="1" stop-color="#C0FECF" stop-opacity="0"/>
</linearGradient>
<linearGradient id="paint48_linear_1_3" x1="770.17" y1="575" x2="370.538" y2="13737.9" gradientUnits="userSpaceOnUse">
<stop stop-color="#CE6708"/>
<stop offset="1" stop-color="#C0FECF" stop-opacity="0"/>
</linearGradient>
<linearGradient id="paint49_linear_1_3" x1="760.17" y1="585" x2="360.538" y2="13747.9" gradientUnits="userSpaceOnUse">
<stop stop-color="#CE6708"/>
<stop offset="1" stop-color="#C0FECF" stop-opacity="0"/>
</linearGradient>
<linearGradient id="paint50_linear_1_3" x1="750.17" y1="585" x2="350.538" y2="13747.9" gradientUnits="userSpaceOnUse">
<stop stop-color="#CE6708"/>
<stop offset="1" stop-color="#C0FECF" stop-opacity="0"/>
</linearGradient>
<linearGradient id="paint51_linear_1_3" x1="740.17" y1="575" x2="340.538" y2="13737.9" gradientUnits="userSpaceOnUse">
<stop stop-color="#CE6708"/>
<stop offset="1" stop-color="#C0FECF" stop-opacity="0"/>
</linearGradient>
<linearGradient id="paint52_linear_1_3" x1="730.17" y1="585" x2="330.538" y2="13747.9" gradientUnits="userSpaceOnUse">
<stop stop-color="#CE6708"/>
<stop offset="1" stop-color="#C0FECF" stop-opacity="0"/>
</linearGradient>
<linearGradient id="paint53_linear_1_3" x1="720.17" y1="595" x2="320.538" y2="13757.9" gradientUnits="userSpaceOnUse">
<stop stop-color="#CE6708"/>
<stop offset="1" stop-color="#C0FECF" stop-opacity="0"/>
</linearGradient>
<linearGradient id="paint54_linear_1_3" x1="710.17" y1="595" x2="310.538" y2="13757.9" gradientUnits="userSpaceOnUse">
<stop stop-color="#CE6708"/>
<stop offset="1" stop-color="#C0FECF" stop-opacity="0"/>
</linearGradient>
<linearGradient id="paint55_linear_1_3" x1="700.17" y1="605" x2="300.538" y2="13767.9" gradientUnits="userSpaceOnUse">
<stop stop-color="#CE6708"/>
<stop offset="1" stop-color="#C0FECF" stop-opacity="0"/>
</linearGradient>
<linearGradient id="paint56_linear_1_3" x1="690.17" y1="595" x2="290.538" y2="13757.9" gradientUnits="userSpaceOnUse">
<stop stop-color="#CE6708"/>
<stop offset="1" stop-color="#C0FECF" stop-opacity="0"/>
</linearGradient>
<linearGradient id="paint57_linear_1_3" x1="680.17" y1="585" x2="280.538" y2="13747.9" gradientUnits="userSpaceOnUse">
<stop stop-color="#CE6708"/>
<stop offset="1" stop-color="#C0FECF" stop-opacity="0"/>
</linearGradient>
<linearGradient id="paint58_linear_1_3" x1="670.17" y1="595" x2="270.538" y2="13757.9" gradientUnits="userSpaceOnUse">
<stop stop-color="#CE6708"/>
<stop offset="1" stop-color="#C0FECF" stop-opacity="0"/>
</linearGradient>
<linearGradient id="paint59_linear_1_3" x1="660.17" y1="585" x2="260.538" y2="13747.9" gradientUnits="userSpaceOnUse">
<stop stop-color="#CE6708"/>
<stop offset="1" stop-color="#C0FECF" stop-opacity="0"/>
</linearGradient>
<linearGradient id="paint60_linear_1_3" x1="990.17" y1="585" x2="590.538" y2="13747.9" gradientUnits="userSpaceOnUse">
<stop stop-color="#CE6708"/>
<stop offset="1" stop-color="#C0FECF" stop-opacity="0"/>
</linearGradient>
<linearGradient id="paint61_linear_1_3" x1="1000.17" y1="585" x2="600.538" y2="13747.9" gradientUnits="userSpaceOnUse">
<stop stop-color="#CE6708"/>
<stop offset="1" stop-color="#C0FECF" stop-opacity="0"/>
</linearGradient>
<linearGradient id="paint62_linear_1_3" x1="980.17" y1="575" x2="580.538" y2="13737.9" gradientUnits="userSpaceOnUse">
<stop stop-color="#CE6708"/>
<stop offset="1" stop-color="#C0FECF" stop-opacity="0"/>
</linearGradient>
<linearGradient id="paint63_linear_1_3" x1="1010.17" y1="585" x2="610.538" y2="13747.9" gradientUnits="userSpaceOnUse">
<stop stop-color="#CE6708"/>
<stop offset="1" stop-color="#C0FECF" stop-opacity="0"/>
</linearGradient>
<linearGradient id="paint64_linear_1_3" x1="970.17" y1="575" x2="570.538" y2="13737.9" gradientUnits="userSpaceOnUse">
<stop stop-color="#CE6708"/>
<stop offset="1" stop-color="#C0FECF" stop-opacity="0"/>
</linearGradient>
<linearGradient id="paint65_linear_1_3" x1="960.17" y1="566" x2="560.538" y2="13728.9" gradientUnits="userSpaceOnUse">
<stop stop-color="#CE6708"/>
<stop offset="1" stop-color="#C0FECF" stop-opacity="0"/>
</linearGradient>
<linearGradient id="paint66_linear_1_3" x1="950.17" y1="575" x2="550.538" y2="13737.9" gradientUnits="userSpaceOnUse">
<stop stop-color="#CE6708"/>
<stop offset="1" stop-color="#C0FECF" stop-opacity="0"/>
</linearGradient>
<linearGradient id="paint67_linear_1_3" x1="940.17" y1="585" x2="540.538" y2="13747.9" gradientUnits="userSpaceOnUse">
<stop stop-color="#CE6708"/>
<stop offset="1" stop-color="#C0FECF" stop-opacity="0"/>
</linearGradient>
<linearGradient id="paint68_linear_1_3" x1="930.17" y1="585" x2="530.538" y2="13747.9" gradientUnits="userSpaceOnUse">
<stop stop-color="#CE6708"/>
<stop offset="1" stop-color="#C0FECF" stop-opacity="0"/>
</linearGradient>
<linearGradient id="paint69_linear_1_3" x1="920.17" y1="575" x2="520.538" y2="13737.9" gradientUnits="userSpaceOnUse">
<stop stop-color="#CE6708"/>
<stop offset="1" stop-color="#C0FECF" stop-opacity="0"/>
</linearGradient>
<linearGradient id="paint70_linear_1_3" x1="910.17" y1="585" x2="510.538" y2="13747.9" gradientUnits="userSpaceOnUse">
<stop stop-color="#CE6708"/>
<stop offset="1" stop-color="#C0FECF" stop-opacity="0"/>
</linearGradient>
<linearGradient id="paint71_linear_1_3" x1="900.17" y1="595" x2="500.538" y2="13757.9" gradientUnits="userSpaceOnUse">
<stop stop-color="#CE6708"/>
<stop offset="1" stop-color="#C0FECF" stop-opacity="0"/>
</linearGradient>
<linearGradient id="paint72_linear_1_3" x1="890.17" y1="595" x2="490.538" y2="13757.9" gradientUnits="userSpaceOnUse">
<stop stop-color="#CE6708"/>
<stop offset="1" stop-color="#C0FECF" stop-opacity="0"/>
</linearGradient>
<linearGradient id="paint73_linear_1_3" x1="880.17" y1="605" x2="480.538" y2="13767.9" gradientUnits="userSpaceOnUse">
<stop stop-color="#CE6708"/>
<stop offset="1" stop-color="#C0FECF" stop-opacity="0"/>
</linearGradient>
<linearGradient id="paint74_linear_1_3" x1="870.17" y1="595" x2="470.538" y2="13757.9" gradientUnits="userSpaceOnUse">
<stop stop-color="#CE6708"/>
<stop offset="1" stop-color="#C0FECF" stop-opacity="0"/>
</linearGradient>
<linearGradient id="paint75_linear_1_3" x1="860.17" y1="585" x2="460.538" y2="13747.9" gradientUnits="userSpaceOnUse">
<stop stop-color="#CE6708"/>
<stop offset="1" stop-color="#C0FECF" stop-opacity="0"/>
</linearGradient>
<linearGradient id="paint76_linear_1_3" x1="850.17" y1="595" x2="450.538" y2="13757.9" gradientUnits="userSpaceOnUse">
<stop stop-color="#CE6708"/>
<stop offset="1" stop-color="#C0FECF" stop-opacity="0"/>
</linearGradient>
<linearGradient id="paint77_linear_1_3" x1="840.17" y1="585" x2="440.538" y2="13747.9" gradientUnits="userSpaceOnUse">
<stop stop-color="#CE6708"/>
<stop offset="1" stop-color="#C0FECF" stop-opacity="0"/>
</linearGradient>
<linearGradient id="paint78_linear_1_3" x1="1170.17" y1="605" x2="770.538" y2="13767.9" gradientUnits="userSpaceOnUse">
<stop stop-color="#CE6708"/>
<stop offset="1" stop-color="#C0FECF" stop-opacity="0"/>
</linearGradient>
<linearGradient id="paint79_linear_1_3" x1="1180.17" y1="605" x2="780.538" y2="13767.9" gradientUnits="userSpaceOnUse">
<stop stop-color="#CE6708"/>
<stop offset="1" stop-color="#C0FECF" stop-opacity="0"/>
</linearGradient>
<linearGradient id="paint80_linear_1_3" x1="1160.17" y1="605" x2="760.538" y2="13767.9" gradientUnits="userSpaceOnUse">
<stop stop-color="#CE6708"/>
<stop offset="1" stop-color="#C0FECF" stop-opacity="0"/>
</linearGradient>
<linearGradient id="paint81_linear_1_3" x1="1190.17" y1="615" x2="790.538" y2="13777.9" gradientUnits="userSpaceOnUse">
<stop stop-color="#CE6708"/>
<stop offset="1" stop-color="#C0FECF" stop-opacity="0"/>
</linearGradient>
<linearGradient id="paint82_linear_1_3" x1="1150.17" y1="605" x2="750.538" y2="13767.9" gradientUnits="userSpaceOnUse">
<stop stop-color="#CE6708"/>
<stop offset="1" stop-color="#C0FECF" stop-opacity="0"/>
</linearGradient>
<linearGradient id="paint83_linear_1_3" x1="1140.17" y1="596" x2="740.538" y2="13758.9" gradientUnits="userSpaceOnUse">
<stop stop-color="#CE6708"/>
<stop offset="1" stop-color="#C0FECF" stop-opacity="0"/>
</linearGradient>
<linearGradient id="paint84_linear_1_3" x1="1130.17" y1="585" x2="730.538" y2="13747.9" gradientUnits="userSpaceOnUse">
<stop stop-color="#CE6708"/>
<stop offset="1" stop-color="#C0FECF" stop-opacity="0"/>
</linearGradient>
<linearGradient id="paint85_linear_1_3" x1="1120.17" y1="595" x2="720.538" y2="13757.9" gradientUnits="userSpaceOnUse">
<stop stop-color="#CE6708"/>
<stop offset="1" stop-color="#C0FECF" stop-opacity="0"/>
</linearGradient>
<linearGradient id="paint86_linear_1_3" x1="1110.17" y1="595" x2="710.538" y2="13757.9" gradientUnits="userSpaceOnUse">
<stop stop-color="#CE6708"/>
<stop offset="1" stop-color="#C0FECF" stop-opacity="0"/>
</linearGradient>
<linearGradient id="paint87_linear_1_3" x1="1100.17" y1="585" x2="700.538" y2="13747.9" gradientUnits="userSpaceOnUse">
<stop stop-color="#CE6708"/>
<stop offset="1" stop-color="#C0FECF" stop-opacity="0"/>
</linearGradient>
<linearGradient id="paint88_linear_1_3" x1="1090.17" y1="595" x2="690.538" y2="13757.9" gradientUnits="userSpaceOnUse">
<stop stop-color="#CE6708"/>
<stop offset="1" stop-color="#C0FECF" stop-opacity="0"/>
</linearGradient>
<linearGradient id="paint89_linear_1_3" x1="1080.17" y1="605" x2="680.538" y2="13767.9" gradientUnits="userSpaceOnUse">
<stop stop-color="#CE6708"/>
<stop offset="1" stop-color="#C0FECF" stop-opacity="0"/>
</linearGradient>
<linearGradient id="paint90_linear_1_3" x1="1070.17" y1="605" x2="670.538" y2="13767.9" gradientUnits="userSpaceOnUse">
<stop stop-color="#CE6708"/>
<stop offset="1" stop-color="#C0FECF" stop-opacity="0"/>
</linearGradient>
<linearGradient id="paint91_linear_1_3" x1="1060.17" y1="615" x2="660.538" y2="13777.9" gradientUnits="userSpaceOnUse">
<stop stop-color="#CE6708"/>
<stop offset="1" stop-color="#C0FECF" stop-opacity="0"/>
</linearGradient>
<linearGradient id="paint92_linear_1_3" x1="1050.17" y1="605" x2="650.538" y2="13767.9" gradientUnits="userSpaceOnUse">
<stop stop-color="#CE6708"/>
<stop offset="1" stop-color="#C0FECF" stop-opacity="0"/>
</linearGradient>
<linearGradient id="paint93_linear_1_3" x1="1040.17" y1="595" x2="640.538" y2="13757.9" gradientUnits="userSpaceOnUse">
<stop stop-color="#CE6708"/>
<stop offset="1" stop-color="#C0FECF" stop-opacity="0"/>
</linearGradient>
<linearGradient id="paint94_linear_1_3" x1="1030.17" y1="605" x2="630.538" y2="13767.9" gradientUnits="userSpaceOnUse">
<stop stop-color="#CE6708"/>
<stop offset="1" stop-color="#C0FECF" stop-opacity="0"/>
</linearGradient>
<linearGradient id="paint95_linear_1_3" x1="1020.17" y1="595" x2="620.538" y2="13757.9" gradientUnits="userSpaceOnUse">
<stop stop-color="#CE6708"/>
<stop offset="1" stop-color="#C0FECF" stop-opacity="0"/>
</linearGradient>
<linearGradient id="paint96_linear_1_3" x1="650.17" y1="575" x2="250.538" y2="13737.9" gradientUnits="userSpaceOnUse">
<stop stop-color="#CE6708"/>
<stop offset="1" stop-color="#C0FECF" stop-opacity="0"/>
</linearGradient>
<linearGradient id="paint97_linear_1_3" x1="640.17" y1="575" x2="240.538" y2="13737.9" gradientUnits="userSpaceOnUse">
<stop stop-color="#CE6708"/>
<stop offset="1" stop-color="#C0FECF" stop-opacity="0"/>
</linearGradient>
<linearGradient id="paint98_linear_1_3" x1="1210.17" y1="605" x2="810.538" y2="13767.9" gradientUnits="userSpaceOnUse">
<stop stop-color="#CE6708"/>
<stop offset="1" stop-color="#C0FECF" stop-opacity="0"/>
</linearGradient>
<linearGradient id="paint99_linear_1_3" x1="1220.17" y1="595" x2="820.538" y2="13757.9" gradientUnits="userSpaceOnUse">
<stop stop-color="#CE6708"/>
<stop offset="1" stop-color="#C0FECF" stop-opacity="0"/>
</linearGradient>
<linearGradient id="paint100_linear_1_3" x1="1200.17" y1="605" x2="800.538" y2="13767.9" gradientUnits="userSpaceOnUse">
<stop stop-color="#CE6708"/>
<stop offset="1" stop-color="#C0FECF" stop-opacity="0"/>
</linearGradient>
<linearGradient id="paint101_linear_1_3" x1="1230.17" y1="605" x2="830.538" y2="13767.9" gradientUnits="userSpaceOnUse">
<stop stop-color="#CE6708"/>
<stop offset="1" stop-color="#C0FECF" stop-opacity="0"/>
</linearGradient>
<linearGradient id="paint102_linear_1_3" x1="1390.17" y1="615" x2="990.538" y2="13777.9" gradientUnits="userSpaceOnUse">
<stop stop-color="#CE6708"/>
<stop offset="1" stop-color="#C0FECF" stop-opacity="0"/>
</linearGradient>
<linearGradient id="paint103_linear_1_3" x1="1380.17" y1="606" x2="980.538" y2="13768.9" gradientUnits="userSpaceOnUse">
<stop stop-color="#CE6708"/>
<stop offset="1" stop-color="#C0FECF" stop-opacity="0"/>
</linearGradient>
<linearGradient id="paint104_linear_1_3" x1="1370.17" y1="615" x2="970.538" y2="13777.9" gradientUnits="userSpaceOnUse">
<stop stop-color="#CE6708"/>
<stop offset="1" stop-color="#C0FECF" stop-opacity="0"/>
</linearGradient>
<linearGradient id="paint105_linear_1_3" x1="1360.17" y1="625" x2="960.538" y2="13787.9" gradientUnits="userSpaceOnUse">
<stop stop-color="#CE6708"/>
<stop offset="1" stop-color="#C0FECF" stop-opacity="0"/>
</linearGradient>
<linearGradient id="paint106_linear_1_3" x1="1350.17" y1="625" x2="950.538" y2="13787.9" gradientUnits="userSpaceOnUse">
<stop stop-color="#CE6708"/>
<stop offset="1" stop-color="#C0FECF" stop-opacity="0"/>
</linearGradient>
<linearGradient id="paint107_linear_1_3" x1="1340.17" y1="615" x2="940.538" y2="13777.9" gradientUnits="userSpaceOnUse">
<stop stop-color="#CE6708"/>
<stop offset="1" stop-color="#C0FECF" stop-opacity="0"/>
</linearGradient>
<linearGradient id="paint108_linear_1_3" x1="1330.17" y1="625" x2="930.538" y2="13787.9" gradientUnits="userSpaceOnUse">
<stop stop-color="#CE6708"/>
<stop offset="1" stop-color="#C0FECF" stop-opacity="0"/>
</linearGradient>
<linearGradient id="paint109_linear_1_3" x1="1320.17" y1="635" x2="920.538" y2="13797.9" gradientUnits="userSpaceOnUse">
<stop stop-color="#CE6708"/>
<stop offset="1" stop-color="#C0FECF" stop-opacity="0"/>
</linearGradient>
<linearGradient id="paint110_linear_1_3" x1="1310.17" y1="635" x2="910.538" y2="13797.9" gradientUnits="userSpaceOnUse">
<stop stop-color="#CE6708"/>
<stop offset="1" stop-color="#C0FECF" stop-opacity="0"/>
</linearGradient>
<linearGradient id="paint111_linear_1_3" x1="1470.17" y1="585" x2="1070.54" y2="13747.9" gradientUnits="userSpaceOnUse">
<stop stop-color="#CE6708"/>
<stop offset="1" stop-color="#C0FECF" stop-opacity="0"/>
</linearGradient>
<linearGradient id="paint112_linear_1_3" x1="1460.17" y1="576" x2="1060.54" y2="13738.9" gradientUnits="userSpaceOnUse">
<stop stop-color="#CE6708"/>
<stop offset="1" stop-color="#C0FECF" stop-opacity="0"/>
</linearGradient>
<linearGradient id="paint113_linear_1_3" x1="1450.17" y1="585" x2="1050.54" y2="13747.9" gradientUnits="userSpaceOnUse">
<stop stop-color="#CE6708"/>
<stop offset="1" stop-color="#C0FECF" stop-opacity="0"/>
</linearGradient>
<linearGradient id="paint114_linear_1_3" x1="1440.17" y1="595" x2="1040.54" y2="13757.9" gradientUnits="userSpaceOnUse">
<stop stop-color="#CE6708"/>
<stop offset="1" stop-color="#C0FECF" stop-opacity="0"/>
</linearGradient>
<linearGradient id="paint115_linear_1_3" x1="1430.17" y1="595" x2="1030.54" y2="13757.9" gradientUnits="userSpaceOnUse">
<stop stop-color="#CE6708"/>
<stop offset="1" stop-color="#C0FECF" stop-opacity="0"/>
</linearGradient>
<linearGradient id="paint116_linear_1_3" x1="1420.17" y1="585" x2="1020.54" y2="13747.9" gradientUnits="userSpaceOnUse">
<stop stop-color="#CE6708"/>
<stop offset="1" stop-color="#C0FECF" stop-opacity="0"/>
</linearGradient>
<linearGradient id="paint117_linear_1_3" x1="1410.17" y1="595" x2="1010.54" y2="13757.9" gradientUnits="userSpaceOnUse">
<stop stop-color="#CE6708"/>
<stop offset="1" stop-color="#C0FECF" stop-opacity="0"/>
</linearGradient>
<linearGradient id="paint118_linear_1_3" x1="1400.17" y1="605" x2="1000.54" y2="13767.9" gradientUnits="userSpaceOnUse">
<stop stop-color="#CE6708"/>
<stop offset="1" stop-color="#C0FECF" stop-opacity="0"/>
</linearGradient>
<linearGradient id="paint119_linear_1_3" x1="1390.17" y1="605" x2="990.538" y2="13767.9" gradientUnits="userSpaceOnUse">
<stop stop-color="#CE6708"/>
<stop offset="1" stop-color="#C0FECF" stop-opacity="0"/>
</linearGradient>
<linearGradient id="paint120_linear_1_3" x1="1560.17" y1="575" x2="1160.54" y2="13737.9" gradientUnits="userSpaceOnUse">
<stop stop-color="#CE6708"/>
<stop offset="1" stop-color="#C0FECF" stop-opacity="0"/>
</linearGradient>
<linearGradient id="paint121_linear_1_3" x1="1550.17" y1="566" x2="1150.54" y2="13728.9" gradientUnits="userSpaceOnUse">
<stop stop-color="#CE6708"/>
<stop offset="1" stop-color="#C0FECF" stop-opacity="0"/>
</linearGradient>
<linearGradient id="paint122_linear_1_3" x1="1540.17" y1="575" x2="1140.54" y2="13737.9" gradientUnits="userSpaceOnUse">
<stop stop-color="#CE6708"/>
<stop offset="1" stop-color="#C0FECF" stop-opacity="0"/>
</linearGradient>
<linearGradient id="paint123_linear_1_3" x1="1530.17" y1="585" x2="1130.54" y2="13747.9" gradientUnits="userSpaceOnUse">
<stop stop-color="#CE6708"/>
<stop offset="1" stop-color="#C0FECF" stop-opacity="0"/>
</linearGradient>
<linearGradient id="paint124_linear_1_3" x1="1520.17" y1="585" x2="1120.54" y2="13747.9" gradientUnits="userSpaceOnUse">
<stop stop-color="#CE6708"/>
<stop offset="1" stop-color="#C0FECF" stop-opacity="0"/>
</linearGradient>
<linearGradient id="paint125_linear_1_3" x1="1510.17" y1="575" x2="1110.54" y2="13737.9" gradientUnits="userSpaceOnUse">
<stop stop-color="#CE6708"/>
<stop offset="1" stop-color="#C0FECF" stop-opacity="0"/>
</linearGradient>
<linearGradient id="paint126_linear_1_3" x1="1500.17" y1="585" x2="1100.54" y2="13747.9" gradientUnits="userSpaceOnUse">
<stop stop-color="#CE6708"/>
<stop offset="1" stop-color="#C0FECF" stop-opacity="0"/>
</linearGradient>
<linearGradient id="paint127_linear_1_3" x1="1490.17" y1="595" x2="1090.54" y2="13757.9" gradientUnits="userSpaceOnUse">
<stop stop-color="#CE6708"/>
<stop offset="1" stop-color="#C0FECF" stop-opacity="0"/>
</linearGradient>
<linearGradient id="paint128_linear_1_3" x1="1480.17" y1="595" x2="1080.54" y2="13757.9" gradientUnits="userSpaceOnUse">
<stop stop-color="#CE6708"/>
<stop offset="1" stop-color="#C0FECF" stop-opacity="0"/>
</linearGradient>
<linearGradient id="paint129_linear_1_3" x1="1590.17" y1="565" x2="1190.54" y2="13727.9" gradientUnits="userSpaceOnUse">
<stop stop-color="#CE6708"/>
<stop offset="1" stop-color="#C0FECF" stop-opacity="0"/>
</linearGradient>
<linearGradient id="paint130_linear_1_3" x1="1580.17" y1="575" x2="1180.54" y2="13737.9" gradientUnits="userSpaceOnUse">
<stop stop-color="#CE6708"/>
<stop offset="1" stop-color="#C0FECF" stop-opacity="0"/>
</linearGradient>
<linearGradient id="paint131_linear_1_3" x1="1570.17" y1="565" x2="1170.54" y2="13727.9" gradientUnits="userSpaceOnUse">
<stop stop-color="#CE6708"/>
<stop offset="1" stop-color="#C0FECF" stop-opacity="0"/>
</linearGradient>
<linearGradient id="paint132_linear_1_3" x1="1300.17" y1="645" x2="900.538" y2="13807.9" gradientUnits="userSpaceOnUse">
<stop stop-color="#CE6708"/>
<stop offset="1" stop-color="#C0FECF" stop-opacity="0"/>
</linearGradient>
<linearGradient id="paint133_linear_1_3" x1="1290.17" y1="635" x2="890.538" y2="13797.9" gradientUnits="userSpaceOnUse">
<stop stop-color="#CE6708"/>
<stop offset="1" stop-color="#C0FECF" stop-opacity="0"/>
</linearGradient>
<linearGradient id="paint134_linear_1_3" x1="1280.17" y1="625" x2="880.538" y2="13787.9" gradientUnits="userSpaceOnUse">
<stop stop-color="#CE6708"/>
<stop offset="1" stop-color="#C0FECF" stop-opacity="0"/>
</linearGradient>
<linearGradient id="paint135_linear_1_3" x1="1270.17" y1="635" x2="870.538" y2="13797.9" gradientUnits="userSpaceOnUse">
<stop stop-color="#CE6708"/>
<stop offset="1" stop-color="#C0FECF" stop-opacity="0"/>
</linearGradient>
<linearGradient id="paint136_linear_1_3" x1="1260.17" y1="625" x2="860.538" y2="13787.9" gradientUnits="userSpaceOnUse">
<stop stop-color="#CE6708"/>
<stop offset="1" stop-color="#C0FECF" stop-opacity="0"/>
</linearGradient>
<linearGradient id="paint137_linear_1_3" x1="1250.17" y1="615" x2="850.538" y2="13777.9" gradientUnits="userSpaceOnUse">
<stop stop-color="#CE6708"/>
<stop offset="1" stop-color="#C0FECF" stop-opacity="0"/>
</linearGradient>
<linearGradient id="paint138_linear_1_3" x1="1240.17" y1="615" x2="840.538" y2="13777.9" gradientUnits="userSpaceOnUse">
<stop stop-color="#CE6708"/>
<stop offset="1" stop-color="#C0FECF" stop-opacity="0"/>
</linearGradient>
<linearGradient id="paint139_linear_1_3" x1="430.17" y1="545" x2="30.5383" y2="13707.9" gradientUnits="userSpaceOnUse">
<stop stop-color="#CE6708"/>
<stop offset="1" stop-color="#C0FECF" stop-opacity="0"/>
</linearGradient>
<linearGradient id="paint140_linear_1_3" x1="420.17" y1="555" x2="20.5383" y2="13717.9" gradientUnits="userSpaceOnUse">
<stop stop-color="#CE6708"/>
<stop offset="1" stop-color="#C0FECF" stop-opacity="0"/>
</linearGradient>
</defs>
</svg>
